<svg xmlns="http://www.w3.org/2000/svg" width="836" height="1254" viewBox="0 0 836 1254">
<g>
<path d="M 420.40 638.31 C420.41,638.32 420.42,638.32 420.42,638.32 C420.42,638.55 378.92,638.79 327.23,638.86 L 231.95 639.00 L 230.99 636.47 C229.01,631.25 225.97,613.81 224.89,601.37 C222.61,575.26 225.75,546.95 233.58,523.11 C249.68,474.09 284.21,432.77 328.00,410.11 C343.53,402.07 364.00,393.93 364.00,395.79 C364.00,396.17 357.37,403.11 349.27,411.23 L 334.55 425.98 L 338.16 436.74 C340.15,442.66 343.93,453.60 346.56,461.05 L 351.34 474.60 L 341.08 493.36 C333.75,506.76 330.98,512.75 331.38,514.31 C331.69,515.52 334.99,520.49 338.72,525.37 L 345.50 534.24 L 360.00 540.92 C367.98,544.60 375.85,548.27 377.50,549.08 L 380.50 550.56 L 380.23 560.03 C380.09,565.24 379.71,571.92 379.39,574.88 L 378.82 580.27 L 394.41 595.43 C402.99,603.77 410.00,610.93 410.00,611.35 C410.00,611.77 412.07,616.86 414.60,622.67 C417.35,628.99 419.01,634.16 418.74,635.56 C418.40,637.33 418.81,638.00 420.40,638.31 ZM 452.00 888.91 C425.61,891.79 392.53,890.27 366.07,884.97 C323.60,876.45 285.01,859.07 249.13,832.30 C234.68,821.52 207.88,795.01 197.97,781.69 L 190.67 771.88 L 179.93 772.19 C174.02,772.36 169.37,772.20 169.60,771.83 C170.19,770.89 319.75,770.78 320.33,771.72 C320.59,772.15 293.61,772.38 260.36,772.23 C202.86,771.98 199.96,772.06 200.86,773.73 C203.15,778.01 221.60,798.43 232.06,808.25 C263.73,838.03 300.33,859.04 343.00,871.94 C372.24,880.78 392.90,883.42 427.42,882.73 C455.87,882.16 466.71,880.80 489.53,874.97 C528.86,864.91 564.79,846.76 596.50,820.94 C605.67,813.47 631.21,787.27 637.38,779.00 L 642.23 772.50 L 584.36 771.97 L 526.50 771.44 L 599.50 771.47 L 672.50 771.50 L 672.52 803.50 L 672.54 835.50 L 672.26 803.75 L 671.97 772.00 L 651.39 772.00 L 646.44 778.75 C619.94,814.96 578.95,847.51 535.68,866.69 C512.55,876.95 478.27,886.05 452.00,888.91 ZM 499.04 849.75 C489.17,854.72 483.74,851.02 480.39,837.02 C477.70,825.79 479.42,820.39 486.64,817.38 C496.67,813.18 503.51,818.95 506.13,833.84 C507.55,841.92 505.52,846.48 499.04,849.75 ZM 346.79 834.28 C341.42,850.60 341.17,850.95 336.35,849.01 C334.55,848.28 333.69,845.90 331.03,834.32 C329.29,826.72 327.62,819.83 327.32,819.00 C327.02,818.17 325.30,821.77 323.50,827.00 C319.56,838.43 318.67,841.26 317.39,841.45 C316.97,841.51 316.52,841.29 315.90,841.01 C315.79,840.95 315.66,840.89 315.53,840.83 C314.14,840.20 313.01,839.41 313.03,839.09 C313.05,838.77 315.44,831.75 318.34,823.50 C323.56,808.70 323.67,808.50 326.49,808.71 C328.07,808.83 329.90,809.50 330.57,810.21 C331.24,810.92 333.28,817.76 335.09,825.42 C336.90,833.07 338.56,838.92 338.76,838.42 C338.97,837.91 340.80,832.78 342.82,827.00 C345.98,817.99 346.78,816.55 348.50,816.83 C349.60,817.02 350.83,817.48 351.23,817.86 C351.63,818.25 349.63,825.63 346.79,834.28 ZM 290.34 819.95 C286.73,822.79 282.41,822.50 276.35,819.03 C268.06,814.27 265.24,809.16 268.04,803.93 C269.01,802.12 269.22,802.10 271.54,803.61 C272.97,804.56 274.00,806.19 274.00,807.53 C274.00,812.06 283.37,817.60 286.56,814.95 C289.20,812.76 287.71,809.82 281.50,805.00 C274.13,799.27 273.01,796.69 275.60,791.40 C276.97,788.62 278.56,787.14 281.27,786.13 C284.85,784.78 285.31,784.86 290.77,787.70 C293.94,789.36 297.50,792.16 298.75,793.99 C301.31,797.75 301.83,804.00 299.58,804.00 C296.70,804.00 295.00,802.73 295.00,800.57 C295.00,797.10 288.53,792.00 284.13,792.00 C282.06,792.00 280.39,795.20 281.51,797.01 C281.86,797.58 284.57,799.84 287.54,802.03 C290.51,804.22 293.45,806.98 294.08,808.16 C295.67,811.13 293.72,817.29 290.34,819.95 ZM 421.82 859.25 L 422.13 862.00 L 413.82 861.83 C409.24,861.73 403.53,861.48 401.13,861.26 L 396.75 860.87 L 397.44 845.69 C397.81,837.33 398.35,829.71 398.63,828.75 C399.20,826.78 401.86,826.59 414.35,827.65 C421.99,828.29 422.00,828.30 422.00,831.21 L 422.00 834.12 L 404.50 833.69 L 404.20 837.22 C403.85,841.22 405.19,841.96 412.75,841.99 C416.80,842.00 417.00,842.14 417.00,845.00 L 417.00 848.00 L 410.61 848.00 C403.97,848.00 403.00,848.64 403.00,853.00 C403.00,854.86 403.74,855.02 418.50,856.25 C420.95,856.45 421.56,857.00 421.82,859.25 ZM 461.75 858.81 C455.56,860.03 449.99,861.02 449.38,861.01 C448.76,861.00 447.97,859.59 447.62,857.88 C445.72,848.33 448.32,843.56 456.24,842.12 C463.67,840.77 465.22,838.76 462.84,833.55 C461.85,831.38 461.02,831.00 457.29,831.00 C453.47,831.00 452.69,831.38 451.20,833.99 C449.52,836.96 445.80,838.10 444.53,836.04 C443.22,833.93 446.92,827.93 450.43,826.46 C455.02,824.55 462.96,824.59 465.75,826.54 C468.57,828.52 470.45,834.80 469.58,839.41 C468.77,843.74 465.90,845.86 458.68,847.48 C454.16,848.49 453.46,848.98 453.18,851.32 C452.81,854.50 453.69,854.61 462.50,852.48 C471.57,850.29 473.00,850.47 473.00,853.80 C473.00,856.57 472.88,856.62 461.75,858.81 ZM 564.73 817.98 C559.80,820.81 552.00,822.16 552.00,820.19 C552.00,818.42 554.69,816.16 558.09,815.09 C563.01,813.53 567.40,808.84 566.52,806.07 C566.15,804.90 564.82,803.27 563.56,802.45 C560.57,800.49 557.25,801.72 553.53,806.16 C548.68,811.96 547.77,811.75 542.08,803.52 C539.29,799.48 537.00,795.74 537.00,795.22 C537.00,794.22 541.80,790.83 550.36,785.79 C555.11,782.99 555.47,782.92 556.70,784.60 C557.41,785.58 558.00,786.73 558.00,787.15 C558.00,787.57 555.08,789.63 551.52,791.71 C547.95,793.79 545.03,795.85 545.02,796.29 C545.01,796.72 545.74,798.20 546.64,799.58 C548.27,802.06 548.30,802.07 550.39,800.16 C553.46,797.36 558.52,795.00 561.45,795.00 C562.97,795.00 565.60,796.45 567.97,798.59 C575.38,805.28 574.16,812.57 564.73,817.98 ZM 533.02 835.99 C527.53,838.75 522.69,841.00 522.27,841.00 C521.04,840.99 518.00,832.76 518.02,829.49 C518.04,825.51 518.82,824.46 524.59,820.69 C530.07,817.11 531.11,814.35 528.50,810.35 C527.16,808.31 526.32,807.95 524.17,808.48 C519.41,809.65 516.76,811.95 517.24,814.50 C517.57,816.23 517.07,817.10 515.27,817.92 C513.94,818.53 512.43,818.77 511.93,818.45 C510.27,817.43 510.95,811.34 513.00,808.72 C515.39,805.68 522.61,802.00 526.18,802.00 C529.77,802.00 533.48,805.25 535.42,810.10 C537.86,816.19 536.34,819.82 529.46,824.39 C525.28,827.17 524.00,828.60 524.00,830.51 C524.00,831.88 524.44,833.00 524.98,833.00 C525.52,833.00 529.37,831.32 533.53,829.26 C539.94,826.09 541.23,825.74 542.03,827.01 C543.91,829.99 542.83,831.07 533.02,835.99 ZM 383.42 856.07 C381.75,857.45 371.10,858.30 367.50,857.33 C363.91,856.37 358.82,851.81 357.32,848.22 C354.49,841.46 358.04,828.25 363.78,824.16 C368.91,820.51 378.69,821.41 384.17,826.03 C387.29,828.67 387.39,828.96 385.83,830.55 C384.27,832.16 383.91,832.14 379.77,830.13 C371.41,826.08 366.55,827.88 364.15,835.89 C362.07,842.83 362.63,846.51 366.22,849.53 C369.19,852.03 369.94,852.20 375.61,851.67 C380.76,851.19 382.05,851.39 383.41,852.90 C384.93,854.58 384.93,854.82 383.42,856.07 ZM 489.15 843.00 C491.22,846.40 492.79,846.68 497.18,844.41 C500.25,842.82 500.25,842.79 499.77,835.99 C499.46,831.74 498.53,827.90 497.31,825.83 C495.60,822.95 494.84,822.52 491.58,822.62 C485.39,822.82 484.42,824.61 485.99,832.95 C486.72,836.83 488.14,841.35 489.15,843.00 ZM 310.76 817.96 C306.83,826.23 303.12,833.00 302.50,833.00 C301.89,833.00 300.60,832.43 299.65,831.73 C298.06,830.57 298.48,829.30 304.96,815.73 C308.82,807.63 312.19,801.00 312.43,801.00 C312.67,801.00 314.00,801.43 315.38,801.96 L 317.89 802.91 Z" fill="rgb(35,122,200)"/>
<path d="M 747.77 761.45 C744.45,762.84 710.39,763.00 421.28,762.98 C109.60,762.96 98.36,762.89 94.50,761.11 C89.68,758.88 86.67,755.67 85.14,751.10 C84.36,748.76 84.00,733.92 84.00,703.59 L 84.00 701.72 C84.00,663.88 84.00,656.70 87.58,652.90 C88.48,651.95 89.60,651.21 91.00,650.25 L 94.30 648.00 L 749.85 648.00 L 753.06 650.70 C754.07,651.55 754.91,652.26 755.61,653.08 C759.00,657.10 759.00,663.98 759.00,704.76 L 759.00 706.48 C759.00,745.58 759.00,751.73 756.00,755.50 C755.41,756.25 754.69,756.90 753.83,757.70 C752.53,758.91 749.81,760.60 747.77,761.45 ZM 222.00 638.13 C222.00,638.61 203.40,639.00 180.62,639.00 C148.45,639.00 139.01,638.72 138.19,637.73 C133.98,632.66 131.61,578.53 134.47,552.88 C138.48,516.88 147.04,486.88 161.94,456.50 C190.72,397.85 237.92,350.68 296.50,322.00 C326.22,307.45 358.32,298.35 391.42,295.08 C405.32,293.71 438.67,293.69 452.14,295.04 C464.34,296.27 487.79,300.85 500.50,304.48 C534.90,314.32 571.71,333.41 601.00,356.61 C612.66,365.84 636.91,390.29 647.01,403.00 C677.48,441.34 698.99,490.67 705.43,537.00 C706.30,543.33 707.44,550.30 707.94,552.50 C709.56,559.62 708.41,612.94 706.34,626.50 L 704.50 638.50 L 662.00 638.50 C634.23,638.50 619.56,638.15 619.66,637.50 C619.75,636.95 620.56,632.92 621.46,628.54 C625.87,607.17 627.36,576.44 624.95,556.97 C621.31,527.67 611.05,498.12 596.19,474.20 C568.67,429.89 524.22,397.23 474.17,384.54 C454.94,379.67 445.89,378.62 422.50,378.56 C398.86,378.50 388.34,379.68 368.50,384.65 C348.11,389.76 325.04,400.13 306.53,412.51 C261.42,442.66 230.27,489.30 219.50,542.81 C214.58,567.26 214.55,601.34 219.43,624.88 C220.84,631.69 222.00,637.65 222.00,638.13 ZM 420.40 638.31 C418.81,638.00 418.40,637.33 418.74,635.56 C419.01,634.16 417.35,628.99 414.60,622.67 C412.07,616.86 410.00,611.77 410.00,611.35 C410.00,610.93 402.99,603.77 394.41,595.43 L 378.82 580.27 L 379.39 574.88 C379.71,571.92 380.09,565.24 380.23,560.03 L 380.50 550.56 L 377.50 549.08 C375.85,548.27 367.98,544.60 360.00,540.92 L 345.50 534.24 L 338.72 525.37 C334.99,520.49 331.69,515.52 331.38,514.31 C330.98,512.75 333.75,506.76 341.08,493.36 L 351.34 474.60 L 346.56 461.05 C343.93,453.60 340.15,442.66 338.16,436.74 L 334.55 425.98 L 349.27 411.23 C357.37,403.11 364.00,396.17 364.00,395.79 C364.00,395.64 363.87,395.56 363.63,395.53 C366.58,394.66 369.54,393.86 372.50,393.16 C393.77,388.08 398.88,387.51 422.50,387.58 C447.08,387.66 457.51,389.06 477.94,395.03 L 489.21 398.32 L 491.21 402.91 C494.71,410.93 497.03,418.10 501.09,433.50 C506.76,455.03 507.81,456.83 521.36,468.27 C535.54,480.25 539.00,485.12 539.00,493.09 C539.00,498.06 538.55,499.44 535.70,503.17 C531.26,509.00 521.64,514.00 514.88,514.00 C508.97,514.00 500.88,510.27 498.32,506.37 C496.75,503.97 496.55,503.91 495.88,505.63 C494.74,508.52 494.88,519.32 496.13,525.20 C497.70,532.64 501.90,540.41 508.43,548.00 C515.66,556.40 519.28,563.74 519.81,571.06 C520.31,577.91 518.86,582.85 515.39,586.10 C513.25,588.11 511.61,588.55 505.12,588.84 C493.74,589.36 487.25,585.98 482.39,577.00 C481.35,575.08 480.41,573.33 480.29,573.12 C480.18,572.92 477.71,575.34 474.82,578.51 C471.93,581.67 467.07,586.07 464.03,588.29 C445.11,602.05 437.65,610.24 427.50,628.30 L 421.50 638.99 L 231.95 639.00 L 327.23 638.86 C378.92,638.79 420.42,638.55 420.42,638.32 C420.42,638.32 420.41,638.32 420.40,638.31 ZM 672.50 771.50 L 599.50 771.47 L 526.50 771.44 L 584.36 771.97 L 642.23 772.50 L 637.38 779.00 C631.21,787.27 605.67,813.47 596.50,820.94 C564.79,846.76 528.86,864.91 489.53,874.97 C466.71,880.80 455.87,882.16 427.42,882.73 C392.90,883.42 372.24,880.78 343.00,871.94 C300.33,859.04 263.73,838.03 232.06,808.25 C221.60,798.43 203.15,778.01 200.86,773.73 C199.96,772.06 202.86,771.98 260.36,772.23 C291.27,772.37 316.77,772.18 319.99,771.81 L 324.10 774.61 C331.22,779.46 351.58,789.26 361.00,792.38 C384.09,800.03 400.88,802.40 426.98,801.69 C447.47,801.13 456.82,799.84 473.00,795.31 C490.00,790.55 513.12,780.56 523.34,773.56 L 527.19 770.93 L 599.84 771.22 ZM 131.38 636.50 C131.49,638.27 130.78,638.53 125.31,638.80 C120.18,639.04 118.96,638.78 118.17,637.30 C115.82,632.82 114.50,612.60 114.54,581.50 C114.58,553.41 114.86,547.79 116.81,535.52 C122.69,498.59 135.44,461.72 151.61,434.87 L 155.00 429.24 L 155.00 383.43 C155.00,344.53 155.00,337.38 158.34,332.54 C159.13,331.40 160.10,330.39 161.30,329.13 C162.69,327.66 163.77,326.50 165.02,325.58 C169.83,322.04 177.23,322.04 214.89,322.02 L 216.71 322.02 L 260.91 322.00 L 266.17 318.90 C275.89,313.17 297.19,302.88 309.39,298.02 C336.84,287.10 364.81,280.37 392.77,277.95 C410.89,276.39 450.38,277.23 465.00,279.49 C499.59,284.83 531.61,295.53 567.00,313.56 L 583.50 321.97 L 627.50 322.24 C669.05,322.49 671.67,322.61 674.50,324.43 C679.50,327.66 682.09,330.31 684.35,334.50 C686.44,338.40 686.50,339.64 686.79,383.49 L 687.08 428.48 L 695.49 445.49 C705.27,465.27 711.44,481.90 716.93,503.25 C726.79,541.65 729.06,584.83 723.45,627.34 C722.65,633.41 722.00,638.51 722.00,638.69 C722.00,639.19 711.38,639.05 710.88,638.54 C710.62,638.29 711.29,632.55 712.36,625.79 C715.17,607.96 715.33,556.32 712.64,537.50 C707.67,502.81 695.99,468.24 678.83,437.50 C622.49,336.56 510.91,276.99 397.00,287.03 C348.46,291.31 306.08,305.41 265.50,330.76 C197.92,372.99 148.15,443.58 133.14,518.50 C128.21,543.12 127.57,550.29 127.54,582.00 C127.52,606.23 127.85,613.55 129.39,623.00 C130.42,629.33 131.32,635.40 131.38,636.50 ZM 452.00 888.91 C478.27,886.05 512.55,876.95 535.68,866.69 C578.95,847.51 619.94,814.96 646.44,778.75 L 651.39 772.00 L 671.97 772.00 L 672.26 803.75 L 672.50 830.86 L 672.50 838.50 L 669.75 843.18 C668.23,845.76 665.61,848.85 663.92,850.05 C657.45,854.66 654.05,855.00 614.29,855.00 L 576.89 855.00 L 567.36 860.61 C533.82,880.35 495.86,893.57 458.50,898.52 C444.00,900.44 414.37,901.18 400.09,899.99 C358.63,896.52 314.15,882.59 277.39,861.54 L 265.96 855.00 L 228.66 855.00 C187.31,855.00 184.03,854.60 177.43,848.80 C170.10,842.37 170.06,842.14 169.97,804.84 L 169.90 772.00 C171.00,772.24 175.03,772.33 179.93,772.19 L 190.67 771.88 L 197.97 781.69 C207.88,795.01 234.68,821.52 249.13,832.30 C285.01,859.07 323.60,876.45 366.07,884.97 C392.53,890.27 425.61,891.79 452.00,888.91 ZM 204.45 736.55 C206.86,738.95 207.25,739.00 222.95,739.00 C237.67,739.00 239.17,738.83 241.00,737.00 C242.91,735.09 243.00,733.67 243.00,704.57 L 243.00 674.15 L 240.28 672.01 C237.72,669.99 236.65,669.89 221.69,670.18 C206.40,670.49 205.75,670.59 203.91,672.86 C202.13,675.06 202.00,677.18 202.00,704.66 L 202.00 734.09 ZM 437.14 792.95 C425.64,794.12 418.47,794.11 406.30,792.93 C385.99,790.97 363.48,784.81 348.18,777.03 L 338.50 772.10 L 423.00 772.14 L 507.50 772.17 L 499.50 776.07 C482.84,784.19 458.41,790.80 437.14,792.95 ZM 255.00 670.00 L 255.00 739.00 L 260.05 739.00 C264.07,739.00 265.59,738.50 267.55,736.55 C269.88,734.21 270.00,733.51 270.00,721.85 C270.00,715.11 270.38,710.03 270.84,710.55 C271.30,711.07 273.40,716.39 275.49,722.37 C280.48,736.58 281.91,738.22 289.85,738.80 L 296.00 739.24 L 296.00 670.00 L 291.95 670.00 C287.38,670.00 282.55,672.12 281.62,674.54 C281.28,675.44 280.99,681.64 280.97,688.33 L 280.94 700.50 L 277.11 690.50 C269.48,670.58 269.00,670.00 260.28,670.00 ZM 599.00 669.76 L 599.00 739.00 L 603.89 739.00 C607.21,739.00 609.54,738.39 611.14,737.09 C613.34,735.31 613.53,734.33 614.00,722.34 L 614.50 709.50 L 618.94 721.50 C624.58,736.72 626.79,739.23 634.23,738.80 L 639.50 738.50 L 640.03 670.00 L 635.96 670.00 C630.86,670.00 626.19,672.36 625.51,675.27 C625.23,676.50 624.88,682.45 624.75,688.50 C624.58,695.91 624.21,698.85 623.61,697.50 C623.13,696.40 620.96,690.90 618.80,685.28 C613.54,671.60 612.78,670.76 605.15,670.20 ZM 652.86 737.09 C654.96,738.79 656.95,739.00 670.94,739.00 C671.79,739.00 672.61,739.00 673.39,739.00 C682.19,739.02 686.62,739.03 688.89,736.82 C691.39,734.39 691.29,729.30 691.56,718.59 L 691.95 703.00 L 669.00 703.00 L 669.00 706.28 C669.00,710.25 671.43,714.00 674.00,714.00 C676.68,714.00 676.97,714.92 676.30,721.37 L 675.71 727.10 L 671.11 726.80 L 666.50 726.50 L 666.23 704.75 L 665.96 683.00 L 670.87 683.00 C676.08,683.00 677.00,683.84 677.00,688.56 C677.00,689.96 677.94,691.54 679.25,692.37 C682.33,694.30 690.63,695.41 691.50,694.00 C691.87,693.39 691.86,688.59 691.46,683.32 C691.01,677.26 690.85,673.91 689.10,672.10 C686.95,669.86 682.38,669.95 671.86,670.16 C671.41,670.17 670.94,670.17 670.47,670.18 C656.32,670.46 653.82,670.75 652.28,672.29 C650.65,673.92 650.50,676.65 650.50,704.62 L 650.50 735.18 ZM 475.02 737.75 C475.01,738.60 476.74,739.00 480.44,739.00 C488.22,739.00 491.14,736.33 491.78,728.67 L 492.25 723.00 L 503.88 723.00 L 504.50 727.75 C505.70,736.93 507.86,739.00 516.20,739.00 L 520.28 739.00 L 519.60 732.25 C518.94,725.75 515.24,697.89 512.87,681.66 C511.29,670.81 510.28,670.00 498.37,670.00 C497.64,670.00 496.96,670.00 496.31,669.99 C492.29,669.96 489.63,669.94 487.71,671.12 C483.67,673.60 482.88,681.38 479.45,705.51 C477.03,722.55 475.03,737.06 475.02,737.75 ZM 381.00 670.00 L 381.00 739.00 L 386.05 739.00 C390.07,739.00 391.59,738.50 393.55,736.55 C395.89,734.20 396.00,733.54 396.00,721.49 L 396.00 708.90 L 406.50 709.50 L 407.00 722.83 C407.58,738.20 408.03,739.00 416.19,739.00 L 421.00 739.00 L 421.00 670.00 L 416.19 670.00 C408.13,670.00 407.58,670.92 407.00,685.17 L 406.50 697.50 L 403.63 697.83 C402.05,698.01 399.69,697.89 398.38,697.56 C396.06,696.98 396.00,696.70 396.00,686.12 C396.00,676.66 395.73,674.93 393.93,672.63 C392.14,670.37 391.10,670.00 386.43,670.00 ZM 399.00 517.36 L 399.00 524.00 L 441.00 524.00 L 441.00 519.95 C441.00,516.99 440.34,515.25 438.55,513.45 C436.28,511.19 435.35,511.00 426.55,511.00 C420.52,511.00 417.00,510.61 417.00,509.95 C417.00,509.37 422.40,498.57 429.00,485.96 C440.11,464.73 441.00,462.62 441.00,457.51 L 441.00 452.00 L 420.25 452.00 L 399.50 452.00 L 399.85 457.01 C400.33,464.02 402.03,465.00 413.72,465.00 C418.83,465.00 423.00,465.18 423.00,465.39 C423.00,465.61 417.60,475.90 411.00,488.25 C399.13,510.48 399.00,510.79 399.00,517.36 ZM 153.02 731.75 L 153.00 739.00 L 192.00 739.00 L 192.00 735.22 C192.00,733.14 191.30,730.44 190.44,729.22 C189.02,727.19 188.07,727.00 179.44,727.00 C173.11,727.00 170.00,726.63 170.00,725.87 C170.00,725.26 174.95,715.19 181.00,703.50 C191.49,683.24 192.00,681.97 192.00,676.13 L 192.00 670.00 L 153.00 670.00 L 153.00 674.88 C153.00,681.54 154.31,682.39 165.55,683.00 L 174.80 683.50 L 153.05 724.50 ZM 308.00 670.00 L 308.00 739.00 L 342.00 739.00 L 342.00 734.12 C342.00,731.35 341.44,728.78 340.70,728.17 C339.99,727.58 335.83,726.96 331.45,726.80 L 323.50 726.50 L 323.50 709.50 L 328.64 709.20 C334.78,708.85 336.93,706.92 337.72,701.08 L 338.26 697.00 L 322.91 697.00 L 323.50 683.50 L 331.10 683.00 C340.54,682.38 342.00,681.29 342.00,674.88 L 342.00 670.00 ZM 434.00 670.00 L 434.00 739.00 L 469.00 739.00 L 469.00 735.11 C469.00,728.64 466.85,727.08 457.50,726.77 L 449.50 726.50 L 449.50 709.50 L 454.73 709.20 C460.89,708.84 463.00,706.69 463.00,700.78 L 463.00 697.00 L 448.91 697.00 L 449.50 683.50 L 457.21 683.00 C466.20,682.42 467.92,681.02 467.97,674.25 L 468.00 670.00 ZM 518.89 376.25 C531.43,382.74 537.74,381.07 545.75,369.14 C549.51,363.55 550.00,362.16 550.00,357.16 C549.99,350.34 547.86,346.36 541.89,342.04 C533.33,335.83 523.36,334.57 517.75,338.98 C514.38,341.63 508.11,353.87 507.42,359.16 C506.97,362.57 507.36,364.47 509.24,368.00 C511.23,371.73 512.88,373.14 518.89,376.25 ZM 300.50 379.13 C304.15,381.40 308.33,381.50 314.12,379.46 C323.72,376.09 330.00,369.29 330.00,362.26 C330.00,357.64 323.75,345.90 319.01,341.62 C314.79,337.81 314.61,337.76 308.42,338.25 C301.69,338.79 296.94,341.04 291.27,346.33 C285.08,352.12 284.78,358.11 290.21,367.39 C293.82,373.58 296.53,376.66 300.50,379.13 ZM 536.00 683.00 L 536.00 739.00 L 538.75 738.99 C543.36,738.99 548.92,737.02 549.99,735.02 C550.59,733.89 551.00,723.06 551.00,708.07 L 551.00 683.00 L 555.43 683.00 C561.30,683.00 563.00,681.19 563.00,674.91 L 563.00 669.96 L 543.25 670.23 L 523.50 670.50 L 523.77 675.00 C524.10,680.57 526.63,683.00 532.11,683.00 ZM 481.50 362.60 C485.04,364.16 487.00,364.34 487.00,363.12 C487.00,362.63 485.88,359.25 484.50,355.60 C483.12,351.94 482.00,348.61 482.00,348.18 C482.00,347.76 483.43,346.98 485.17,346.46 C489.47,345.16 492.18,341.14 492.75,335.22 C493.34,329.16 492.05,326.57 487.22,324.12 C482.82,321.89 463.79,317.48 461.82,318.24 C460.90,318.59 459.35,324.97 457.14,337.47 C455.32,347.75 454.01,356.34 454.22,356.55 C454.43,356.77 456.14,357.07 458.02,357.22 C461.43,357.50 461.43,357.50 462.31,352.00 C462.79,348.98 463.52,346.15 463.93,345.71 C464.34,345.28 466.51,345.22 468.75,345.58 C472.76,346.22 472.87,346.35 475.66,353.75 C477.97,359.87 479.06,361.53 481.50,362.60 ZM 573.00 674.15 L 573.00 739.00 L 578.05 739.00 C582.07,739.00 583.59,738.50 585.55,736.55 L 588.00 734.09 L 588.00 670.00 L 583.13 670.00 C579.73,670.00 577.48,670.62 575.63,672.07 ZM 350.13 359.75 C351.10,364.77 351.26,364.97 353.82,364.37 C355.29,364.03 356.92,363.36 357.43,362.89 C357.99,362.38 357.29,356.68 355.64,348.39 C354.15,340.88 353.07,334.59 353.24,334.42 C353.41,334.25 359.25,339.50 366.22,346.08 L 378.88 358.06 L 383.50 356.90 C386.11,356.24 387.93,355.25 387.70,354.62 C387.47,354.00 385.31,345.26 382.89,335.19 L 378.50 316.87 L 375.00 317.52 C373.08,317.88 371.33,318.35 371.12,318.55 C370.91,318.76 372.15,324.46 373.88,331.21 C375.60,337.97 377.01,344.17 377.01,344.98 C377.00,345.80 371.49,340.99 364.75,334.29 L 352.50 322.10 L 348.25 323.26 C345.73,323.94 344.00,325.00 344.00,325.86 C344.00,327.11 346.55,341.24 350.13,359.75 ZM 499.04 849.75 C505.52,846.48 507.55,841.92 506.13,833.84 C503.51,818.95 496.67,813.18 486.64,817.38 C479.42,820.39 477.70,825.79 480.39,837.02 C483.74,851.02 489.17,854.72 499.04,849.75 ZM 254.48 407.57 C259.53,410.60 263.15,410.61 269.56,407.63 C275.54,404.84 281.31,398.48 283.39,392.38 L 284.88 388.00 L 281.98 388.00 C278.89,388.00 278.24,388.53 274.71,393.98 C273.47,395.89 270.89,398.51 268.98,399.81 C263.72,403.37 259.67,402.35 253.75,395.98 C247.15,388.87 247.17,385.54 253.86,378.86 C256.59,376.12 259.63,374.00 260.82,374.00 C263.12,374.00 265.00,371.33 265.00,368.07 C265.00,365.43 261.99,365.37 256.43,367.89 C247.62,371.90 241.00,380.31 241.00,387.51 C241.00,393.82 247.38,403.32 254.48,407.57 ZM 346.79 834.28 C349.63,825.63 351.63,818.25 351.23,817.86 C350.83,817.48 349.60,817.02 348.50,816.83 C346.78,816.55 345.98,817.99 342.82,827.00 C340.80,832.78 338.97,837.91 338.76,838.42 C338.56,838.92 336.90,833.07 335.09,825.42 C333.28,817.76 331.24,810.92 330.57,810.21 C329.90,809.50 328.07,808.83 326.49,808.71 C323.67,808.50 323.56,808.70 318.34,823.50 C315.44,831.75 313.05,838.77 313.03,839.09 C313.01,839.41 314.14,840.20 315.53,840.83 C315.66,840.89 315.79,840.95 315.90,841.01 C316.52,841.29 316.97,841.51 317.39,841.45 C318.67,841.26 319.56,838.43 323.50,827.00 C325.30,821.77 327.02,818.17 327.32,819.00 C327.62,819.83 329.29,826.72 331.03,834.32 C333.69,845.90 334.55,848.28 336.35,849.01 C341.17,850.95 341.42,850.60 346.79,834.28 ZM 536.10 369.02 C534.01,371.21 531.45,372.96 530.40,372.92 C523.52,372.64 515.00,366.42 515.00,361.67 C515.00,358.34 520.51,347.46 523.12,345.63 C524.40,344.73 526.60,344.00 528.01,344.00 C531.64,344.00 539.02,348.00 541.38,351.24 C543.32,353.90 543.33,354.12 541.63,359.51 C540.55,362.92 538.44,366.56 536.10,369.02 ZM 290.34 819.95 C293.72,817.29 295.67,811.13 294.08,808.16 C293.45,806.98 290.51,804.22 287.54,802.03 C284.57,799.84 281.86,797.58 281.51,797.01 C280.39,795.20 282.06,792.00 284.13,792.00 C288.53,792.00 295.00,797.10 295.00,800.57 C295.00,802.73 296.70,804.00 299.58,804.00 C301.83,804.00 301.31,797.75 298.75,793.99 C297.50,792.16 293.94,789.36 290.77,787.70 C285.31,784.86 284.85,784.78 281.27,786.13 C278.56,787.14 276.97,788.62 275.60,791.40 C273.01,796.69 274.13,799.27 281.50,805.00 C287.71,809.82 289.20,812.76 286.56,814.95 C283.37,817.60 274.00,812.06 274.00,807.53 C274.00,806.19 272.97,804.56 271.54,803.61 C269.22,802.10 269.01,802.12 268.04,803.93 C265.24,809.16 268.06,814.27 276.35,819.03 C282.41,822.50 286.73,822.79 290.34,819.95 ZM 313.68 371.94 C312.14,372.52 309.33,373.00 307.44,373.00 C304.56,373.00 303.52,372.32 300.92,368.75 C294.78,360.32 293.23,354.84 296.04,351.46 C297.81,349.32 306.41,345.00 308.89,345.00 C309.97,345.00 312.12,346.08 313.67,347.39 C317.01,350.21 322.00,359.66 322.00,363.16 C322.00,365.99 317.85,370.36 313.68,371.94 ZM 421.82 859.25 C421.56,857.00 420.95,856.45 418.50,856.25 C403.74,855.02 403.00,854.86 403.00,853.00 C403.00,848.64 403.97,848.00 410.61,848.00 L 417.00 848.00 L 417.00 845.00 C417.00,842.14 416.80,842.00 412.75,841.99 C405.19,841.96 403.85,841.22 404.20,837.22 L 404.50 833.69 L 422.00 834.12 L 422.00 831.21 C422.00,828.30 421.99,828.29 414.35,827.65 C401.86,826.59 399.20,826.78 398.63,828.75 C398.35,829.71 397.81,837.33 397.44,845.69 L 396.75 860.87 L 401.13 861.26 C403.53,861.48 409.24,861.73 413.82,861.83 L 422.13 862.00 ZM 461.75 858.81 C472.88,856.62 473.00,856.57 473.00,853.80 C473.00,850.47 471.57,850.29 462.50,852.48 C453.69,854.61 452.81,854.50 453.18,851.32 C453.46,848.98 454.16,848.49 458.68,847.48 C465.90,845.86 468.77,843.74 469.58,839.41 C470.45,834.80 468.57,828.52 465.75,826.54 C462.96,824.59 455.02,824.55 450.43,826.46 C446.92,827.93 443.22,833.93 444.53,836.04 C445.80,838.10 449.52,836.96 451.20,833.99 C452.69,831.38 453.47,831.00 457.29,831.00 C461.02,831.00 461.85,831.38 462.84,833.55 C465.22,838.76 463.67,840.77 456.24,842.12 C448.32,843.56 445.72,848.33 447.62,857.88 C447.97,859.59 448.76,861.00 449.38,861.01 C449.99,861.02 455.56,860.03 461.75,858.81 ZM 417.00 322.00 L 417.00 355.12 L 424.50 354.50 L 424.77 338.25 L 425.05 322.00 L 438.00 322.00 L 438.00 315.00 L 403.00 315.00 L 403.00 322.00 ZM 564.73 817.98 C574.16,812.57 575.38,805.28 567.97,798.59 C565.60,796.45 562.97,795.00 561.45,795.00 C558.52,795.00 553.46,797.36 550.39,800.16 C548.30,802.07 548.27,802.06 546.64,799.58 C545.74,798.20 545.01,796.72 545.02,796.29 C545.03,795.85 547.95,793.79 551.52,791.71 C555.08,789.63 558.00,787.57 558.00,787.15 C558.00,786.73 557.41,785.58 556.70,784.60 C555.47,782.92 555.11,782.99 550.36,785.79 C541.80,790.83 537.00,794.22 537.00,795.22 C537.00,795.74 539.29,799.48 542.08,803.52 C547.77,811.75 548.68,811.96 553.53,806.16 C557.25,801.72 560.57,800.49 563.56,802.45 C564.82,803.27 566.15,804.90 566.52,806.07 C567.40,808.84 563.01,813.53 558.09,815.09 C554.69,816.16 552.00,818.42 552.00,820.19 C552.00,822.16 559.80,820.81 564.73,817.98 ZM 533.02 835.99 C542.83,831.07 543.91,829.99 542.03,827.01 C541.23,825.74 539.94,826.09 533.53,829.26 C529.37,831.32 525.52,833.00 524.98,833.00 C524.44,833.00 524.00,831.88 524.00,830.51 C524.00,828.60 525.28,827.17 529.46,824.39 C536.34,819.82 537.86,816.19 535.42,810.10 C533.48,805.25 529.77,802.00 526.18,802.00 C522.61,802.00 515.39,805.68 513.00,808.72 C510.95,811.34 510.27,817.43 511.93,818.45 C512.43,818.77 513.94,818.53 515.27,817.92 C517.07,817.10 517.57,816.23 517.24,814.50 C516.76,811.95 519.41,809.65 524.17,808.48 C526.32,807.95 527.16,808.31 528.50,810.35 C531.11,814.35 530.07,817.11 524.59,820.69 C518.82,824.46 518.04,825.51 518.02,829.49 C518.00,832.76 521.04,840.99 522.27,841.00 C522.69,841.00 527.53,838.75 533.02,835.99 ZM 563.68 402.82 C570.18,407.77 575.76,411.86 576.08,411.91 C576.39,411.96 577.66,410.92 578.90,409.61 L 581.14 407.22 L 572.32 400.42 C567.47,396.68 563.32,393.49 563.10,393.33 C562.88,393.17 564.58,390.66 566.87,387.77 C569.17,384.87 573.61,379.19 576.74,375.14 L 582.45 367.78 L 579.67 365.39 C578.14,364.08 576.58,363.02 576.19,363.04 C575.62,363.08 557.90,385.37 553.18,391.99 C551.99,393.66 552.93,394.64 563.68,402.82 ZM 383.42 856.07 C384.93,854.82 384.93,854.58 383.41,852.90 C382.05,851.39 380.76,851.19 375.61,851.67 C369.94,852.20 369.19,852.03 366.22,849.53 C362.63,846.51 362.07,842.83 364.15,835.89 C366.55,827.88 371.41,826.08 379.77,830.13 C383.91,832.14 384.27,832.16 385.83,830.55 C387.39,828.96 387.29,828.67 384.17,826.03 C378.69,821.41 368.91,820.51 363.78,824.16 C358.04,828.25 354.49,841.46 357.32,848.22 C358.82,851.81 363.91,856.37 367.50,857.33 C371.10,858.30 381.75,857.45 383.42,856.07 ZM 228.04 683.00 L 227.50 726.50 L 223.46 726.80 C221.24,726.96 219.11,726.77 218.71,726.38 C218.32,725.99 218.00,716.07 218.00,704.33 L 218.00 683.00 ZM 489.15 843.00 C488.14,841.35 486.72,836.83 485.99,832.95 C484.42,824.61 485.39,822.82 491.58,822.62 C494.84,822.52 495.60,822.95 497.31,825.83 C498.53,827.90 499.46,831.74 499.77,835.99 C500.25,842.79 500.25,842.82 497.18,844.41 C492.79,846.68 491.22,846.40 489.15,843.00 ZM 483.27 339.25 C482.40,340.21 480.97,340.94 480.10,340.87 C477.90,340.69 465.69,338.02 465.30,337.64 C464.94,337.28 466.84,326.83 467.36,326.31 C468.20,325.46 482.60,329.23 484.26,330.74 C486.35,332.63 485.92,336.31 483.27,339.25 ZM 310.76 817.96 L 317.89 802.91 L 315.38 801.96 C314.00,801.43 312.67,801.00 312.43,801.00 C312.19,801.00 308.82,807.63 304.96,815.73 C298.48,829.30 298.06,830.57 299.65,831.73 C300.60,832.43 301.89,833.00 302.50,833.00 C303.12,833.00 306.83,826.23 310.76,817.96 ZM 502.00 709.25 C502.00,710.61 501.15,711.00 498.17,711.00 C496.06,711.00 494.12,710.78 493.85,710.52 C493.58,710.25 493.91,706.76 494.57,702.77 C495.24,698.77 496.09,692.91 496.46,689.75 C496.84,686.59 497.49,684.00 497.91,684.00 C498.60,684.00 502.00,705.00 502.00,709.25 ZM 319.72 771.63 C316.21,771.34 297.96,771.17 275.33,771.10 L 318.71 770.94 ZM 299.18 428.72 C286.04,439.06 274.20,451.24 263.99,464.82 C266.47,461.48 269.06,458.18 271.77,454.92 C279.62,445.48 288.91,436.65 299.18,428.72 ZM 228.38 542.77 C224.47,561.72 223.21,582.14 224.89,601.37 C223.14,581.38 224.34,561.75 228.38,542.77 ZM 178.72 771.47 C173.97,771.55 170.83,771.65 169.90,771.76 L 169.89 771.50 ZM 339.30 404.62 C337.49,405.45 335.68,406.30 333.88,407.17 C335.68,406.29 337.48,405.44 339.30,404.62 Z" fill="rgb(13,20,43)"/>
<path d="M 610.09 636.27 L 609.06 638.97 L 421.51 638.98 L 427.50 628.30 C437.65,610.24 445.11,602.05 464.03,588.29 C467.07,586.07 471.93,581.67 474.82,578.51 C477.71,575.34 480.18,572.92 480.29,573.12 C480.41,573.33 481.35,575.08 482.39,577.00 C487.25,585.98 493.74,589.36 505.12,588.84 C511.61,588.55 513.25,588.11 515.39,586.10 C518.86,582.85 520.31,577.91 519.81,571.06 C519.28,563.74 515.66,556.40 508.43,548.00 C501.90,540.41 497.70,532.64 496.13,525.20 C494.88,519.32 494.74,508.52 495.88,505.63 C496.55,503.91 496.75,503.97 498.32,506.37 C500.88,510.27 508.97,514.00 514.88,514.00 C521.64,514.00 531.26,509.00 535.70,503.17 C538.55,499.44 539.00,498.06 539.00,493.09 C539.00,485.12 535.54,480.25 521.36,468.27 C507.81,456.83 506.76,455.03 501.09,433.50 C497.03,418.10 494.71,410.93 491.21,402.91 L 489.47 398.93 C515.23,408.30 538.51,422.92 558.18,442.27 C587.72,471.32 605.11,502.87 613.64,542.94 C616.64,557.01 617.90,587.53 616.15,603.54 C614.95,614.51 611.71,632.00 610.09,636.27 ZM 127.92 556.70 C128.49,543.48 129.87,534.83 133.14,518.50 C148.15,443.58 197.92,372.99 265.50,330.76 C306.08,305.41 348.46,291.31 397.00,287.03 C510.91,276.99 622.49,336.56 678.83,437.50 C695.99,468.24 707.67,502.81 712.64,537.50 C713.29,542.02 713.77,548.44 714.09,555.83 C713.26,553.86 713.11,554.36 713.05,559.00 C712.99,562.94 712.69,564.07 712.00,563.00 C711.14,561.67 711.02,561.67 710.92,563.00 C710.85,563.83 710.47,563.38 710.07,562.00 C709.66,560.62 709.05,571.88 708.70,587.00 C708.37,601.86 707.76,613.45 706.91,621.54 C708.61,603.07 709.41,558.93 707.94,552.50 C707.44,550.30 706.30,543.33 705.43,537.00 C698.99,490.67 677.48,441.34 647.01,403.00 C636.91,390.29 612.66,365.84 601.00,356.61 C571.71,333.41 534.90,314.32 500.50,304.48 C487.79,300.85 464.34,296.27 452.14,295.04 C438.67,293.69 405.32,293.71 391.42,295.08 C358.32,298.35 326.22,307.45 296.50,322.00 C237.92,350.68 190.72,397.85 161.94,456.50 C147.04,486.88 138.48,516.88 134.47,552.88 C133.35,562.91 133.03,577.28 133.31,591.38 C132.87,578.41 132.93,565.92 133.74,558.75 C134.22,554.49 134.26,550.44 133.82,549.75 C133.34,548.98 133.02,549.73 133.02,551.69 C133.00,555.70 131.58,556.66 129.67,553.94 C128.68,552.52 128.31,552.56 127.92,556.70 ZM 518.89 376.25 C512.88,373.14 511.23,371.73 509.24,368.00 C507.36,364.47 506.97,362.57 507.42,359.16 C508.11,353.87 514.38,341.63 517.75,338.98 C523.36,334.57 533.33,335.83 541.89,342.04 C547.86,346.36 549.99,350.34 550.00,357.16 C550.00,362.16 549.51,363.55 545.75,369.14 C537.74,381.07 531.43,382.74 518.89,376.25 ZM 300.50 379.13 C296.53,376.66 293.82,373.58 290.21,367.39 C284.78,358.11 285.08,352.12 291.27,346.33 C296.94,341.04 301.69,338.79 308.42,338.25 C314.61,337.76 314.79,337.81 319.01,341.62 C323.75,345.90 330.00,357.64 330.00,362.26 C330.00,369.29 323.72,376.09 314.12,379.46 C308.33,381.50 304.15,381.40 300.50,379.13 ZM 481.50 362.60 C479.06,361.53 477.97,359.87 475.66,353.75 C472.87,346.35 472.76,346.22 468.75,345.58 C466.51,345.22 464.34,345.28 463.93,345.71 C463.52,346.15 462.79,348.98 462.31,352.00 C461.43,357.50 461.43,357.50 458.02,357.22 C456.14,357.07 454.43,356.77 454.22,356.55 C454.01,356.34 455.32,347.75 457.14,337.47 C459.35,324.97 460.90,318.59 461.82,318.24 C463.79,317.48 482.82,321.89 487.22,324.12 C492.05,326.57 493.34,329.16 492.75,335.22 C492.18,341.14 489.47,345.16 485.17,346.46 C483.43,346.98 482.00,347.76 482.00,348.18 C482.00,348.61 483.12,351.94 484.50,355.60 C485.88,359.25 487.00,362.63 487.00,363.12 C487.00,364.34 485.04,364.16 481.50,362.60 ZM 350.13 359.75 C346.55,341.24 344.00,327.11 344.00,325.86 C344.00,325.00 345.73,323.94 348.25,323.26 L 352.50 322.10 L 364.75 334.29 C371.49,340.99 377.00,345.80 377.01,344.98 C377.01,344.17 375.60,337.97 373.88,331.21 C372.15,324.46 370.91,318.76 371.12,318.55 C371.33,318.35 373.08,317.88 375.00,317.52 L 378.50 316.87 L 382.89 335.19 C385.31,345.26 387.47,354.00 387.70,354.62 C387.93,355.25 386.11,356.24 383.50,356.90 L 378.88 358.06 L 366.22 346.08 C359.25,339.50 353.41,334.25 353.24,334.42 C353.07,334.59 354.15,340.88 355.64,348.39 C357.29,356.68 357.99,362.38 357.43,362.89 C356.92,363.36 355.29,364.03 353.82,364.37 C351.26,364.97 351.10,364.77 350.13,359.75 ZM 254.48 407.57 C247.38,403.32 241.00,393.82 241.00,387.51 C241.00,380.31 247.62,371.90 256.43,367.89 C261.99,365.37 265.00,365.43 265.00,368.07 C265.00,371.33 263.12,374.00 260.82,374.00 C259.63,374.00 256.59,376.12 253.86,378.86 C247.17,385.54 247.15,388.87 253.75,395.98 C259.67,402.35 263.72,403.37 268.98,399.81 C270.89,398.51 273.47,395.89 274.71,393.98 C278.24,388.53 278.89,388.00 281.98,388.00 L 284.88 388.00 L 283.39 392.38 C281.31,398.48 275.54,404.84 269.56,407.63 C263.15,410.61 259.53,410.60 254.48,407.57 ZM 536.10 369.02 C538.44,366.56 540.55,362.92 541.63,359.51 C543.33,354.12 543.32,353.90 541.38,351.24 C539.02,348.00 531.64,344.00 528.01,344.00 C526.60,344.00 524.40,344.73 523.12,345.63 C520.51,347.46 515.00,358.34 515.00,361.67 C515.00,366.42 523.52,372.64 530.40,372.92 C531.45,372.96 534.01,371.21 536.10,369.02 ZM 313.68 371.94 C317.85,370.36 322.00,365.99 322.00,363.16 C322.00,359.66 317.01,350.21 313.67,347.39 C312.12,346.08 309.97,345.00 308.89,345.00 C306.41,345.00 297.81,349.32 296.04,351.46 C293.23,354.84 294.78,360.32 300.92,368.75 C303.52,372.32 304.56,373.00 307.44,373.00 C309.33,373.00 312.14,372.52 313.68,371.94 ZM 417.00 322.00 L 403.00 322.00 L 403.00 315.00 L 438.00 315.00 L 438.00 322.00 L 425.05 322.00 L 424.77 338.25 L 424.50 354.50 L 417.00 355.12 ZM 563.68 402.82 C552.93,394.64 551.99,393.66 553.18,391.99 C557.90,385.37 575.62,363.08 576.19,363.04 C576.58,363.02 578.14,364.08 579.67,365.39 L 582.45 367.78 L 576.74 375.14 C573.61,379.19 569.17,384.87 566.87,387.77 C564.58,390.66 562.88,393.17 563.10,393.33 C563.32,393.49 567.47,396.68 572.32,400.42 L 581.14 407.22 L 578.90 409.61 C577.66,410.92 576.39,411.96 576.08,411.91 C575.76,411.86 570.18,407.77 563.68,402.82 ZM 483.27 339.25 C485.92,336.31 486.35,332.63 484.26,330.74 C482.60,329.23 468.20,325.46 467.36,326.31 C466.84,326.83 464.94,337.28 465.30,337.64 C465.69,338.02 477.90,340.69 480.10,340.87 C480.97,340.94 482.40,340.21 483.27,339.25 ZM 445.74 388.42 C439.16,387.83 431.85,387.61 422.50,387.58 C415.93,387.56 410.78,387.59 406.33,387.76 C419.88,386.69 433.39,386.87 445.74,388.42 ZM 131.38 636.50 C131.32,635.40 130.42,629.33 129.39,623.00 C128.35,616.65 127.86,611.27 127.66,601.07 C128.11,610.43 128.78,618.95 129.59,624.00 C130.52,629.78 131.33,635.40 131.39,636.50 C131.42,637.12 131.36,637.56 131.02,637.87 C131.36,637.55 131.42,637.12 131.38,636.50 ZM 268.39 459.08 C266.89,460.98 265.42,462.89 263.99,464.82 C253.04,479.39 243.99,495.59 237.25,512.89 C239.24,507.69 241.46,502.59 243.90,497.61 C250.73,483.61 258.93,470.74 268.39,459.08 ZM 714.34 596.93 C714.02,608.83 713.36,619.45 712.36,625.79 C711.49,631.27 710.89,636.07 710.83,637.83 C710.88,636.11 711.44,631.52 712.25,626.30 C713.12,620.68 713.86,609.11 714.34,596.93 ZM 380.84 391.22 C378.33,391.78 375.58,392.42 372.50,393.16 C369.54,393.86 366.58,394.66 363.63,395.53 C363.47,395.51 363.27,395.52 363.01,395.55 C368.73,393.87 374.71,392.42 380.84,391.22 ZM 339.30 404.62 C337.48,405.44 335.68,406.29 333.88,407.17 C331.88,408.14 329.90,409.13 328.00,410.11 C327.87,410.18 327.75,410.24 327.62,410.31 C334.31,406.72 341.28,403.46 348.50,400.55 C349.23,400.26 349.97,399.97 350.71,399.68 C347.21,401.10 343.28,402.80 339.30,404.62 Z" fill="rgb(248,153,25)"/>
<path d="M 0.00 627.00 L 0.00 0.00 L 418.00 0.00 L 836.00 0.00 L 836.00 627.00 L 836.00 1254.00 L 418.00 1254.00 L 0.00 1254.00 L 0.00 627.00 ZM 458.50 898.52 C495.86,893.57 533.82,880.35 567.36,860.61 L 576.89 855.00 L 614.29 855.00 C654.05,855.00 657.45,854.66 663.92,850.05 C665.61,848.85 668.23,845.76 669.75,843.18 L 672.50 838.50 L 672.50 805.00 L 672.50 771.50 L 599.84 771.22 L 527.19 770.93 L 523.34 773.56 C513.12,780.56 490.00,790.55 473.00,795.31 C456.82,799.84 447.47,801.13 426.98,801.69 C400.88,802.40 384.09,800.03 361.00,792.38 C351.58,789.26 331.22,779.46 324.10,774.61 L 318.71 770.94 L 244.30 771.22 L 169.89 771.50 L 169.97 804.84 C170.06,842.14 170.10,842.37 177.43,848.80 C184.03,854.60 187.31,855.00 228.66,855.00 L 265.96 855.00 L 277.39 861.54 C314.15,882.59 358.63,896.52 400.09,899.99 C414.37,901.18 444.00,900.44 458.50,898.52 ZM 437.14 792.95 C458.41,790.80 482.84,784.19 499.50,776.07 L 507.50 772.17 L 423.00 772.14 L 338.50 772.10 L 348.18 777.03 C363.48,784.81 385.99,790.97 406.30,792.93 C418.47,794.11 425.64,794.12 437.14,792.95 ZM 747.77 761.45 C749.81,760.60 752.53,758.91 753.83,757.70 C759.05,752.83 759.00,753.37 759.00,705.02 C759.00,655.62 759.01,655.71 753.06,650.70 L 749.85 648.00 L 422.07 648.00 L 94.30 648.00 L 91.00 650.25 C83.91,655.09 84.00,654.39 84.00,703.59 C84.00,733.92 84.36,748.76 85.14,751.10 C86.67,755.67 89.68,758.88 94.50,761.11 C98.36,762.89 109.60,762.96 421.28,762.98 C710.39,763.00 744.45,762.84 747.77,761.45 ZM 131.39 636.50 C131.33,635.40 130.52,629.78 129.59,624.00 C127.59,611.52 126.42,577.89 127.46,562.67 C128.14,552.77 128.33,552.02 129.67,553.94 C131.58,556.66 133.00,555.70 133.02,551.69 C133.02,549.73 133.34,548.98 133.82,549.75 C134.26,550.44 134.22,554.49 133.74,558.75 C131.59,577.66 134.75,633.58 138.19,637.73 C139.01,638.72 148.45,639.00 180.62,639.00 C203.40,639.00 222.00,638.61 222.00,638.13 C222.00,637.65 220.84,631.69 219.43,624.88 C214.55,601.34 214.58,567.26 219.50,542.81 C230.27,489.30 261.42,442.66 306.53,412.51 C325.04,400.13 348.11,389.76 368.50,384.65 C388.34,379.68 398.86,378.50 422.50,378.56 C445.89,378.62 454.94,379.67 474.17,384.54 C524.22,397.23 568.67,429.89 596.19,474.20 C611.05,498.12 621.31,527.67 624.95,556.97 C627.36,576.44 625.87,607.17 621.46,628.54 C620.56,632.92 619.75,636.95 619.66,637.50 C619.56,638.15 634.23,638.50 662.00,638.50 L 704.50 638.50 L 706.29 626.50 C707.48,618.54 708.29,605.24 708.70,587.00 C709.05,571.88 709.66,560.62 710.07,562.00 C710.47,563.38 710.85,563.83 710.92,563.00 C711.02,561.67 711.14,561.67 712.00,563.00 C712.69,564.07 712.99,562.94 713.05,559.00 C713.12,554.23 713.26,553.83 714.16,556.00 C715.85,560.09 714.44,612.13 712.25,626.30 C711.25,632.78 710.63,638.30 710.88,638.55 C711.38,639.05 722.00,639.18 722.00,638.69 C722.00,638.51 722.65,633.41 723.45,627.34 C729.06,584.83 726.79,541.65 716.93,503.25 C711.44,481.90 705.27,465.27 695.49,445.49 L 687.08 428.48 L 686.79 383.49 C686.50,339.64 686.44,338.40 684.35,334.50 C682.09,330.31 679.50,327.66 674.50,324.43 C671.67,322.61 669.05,322.49 627.50,322.24 L 583.50 321.97 L 567.00 313.56 C531.61,295.53 499.59,284.83 465.00,279.49 C450.38,277.23 410.89,276.39 392.77,277.95 C364.81,280.37 336.84,287.10 309.39,298.02 C297.19,302.88 275.89,313.17 266.17,318.90 L 260.91 322.00 L 216.71 322.02 C167.40,322.05 168.11,321.96 161.30,329.13 C154.95,335.82 155.00,335.38 155.00,384.59 L 155.00 429.24 L 151.61 434.87 C135.44,461.72 122.69,498.59 116.81,535.52 C114.86,547.79 114.58,553.41 114.54,581.50 C114.50,612.60 115.82,632.82 118.17,637.30 C118.96,638.78 120.18,639.04 125.31,638.80 C130.78,638.53 131.49,638.27 131.39,636.50 ZM 610.09 636.27 C611.71,632.00 614.95,614.51 616.15,603.54 C617.90,587.53 616.64,557.01 613.64,542.94 C605.11,502.87 587.72,471.32 558.18,442.27 C527.95,412.54 489.20,393.95 446.00,388.45 C414.96,384.50 376.51,389.27 348.50,400.55 C301.76,419.38 265.82,452.72 243.90,497.61 C228.41,529.31 221.76,565.60 224.89,601.37 C225.97,613.80 229.01,631.25 230.98,636.46 L 231.94 638.98 L 420.50 638.98 L 609.06 638.97 L 610.09 636.27 ZM 153.02 731.75 L 153.05 724.50 L 163.93 704.00 L 174.80 683.50 L 165.55 683.00 C154.31,682.39 153.00,681.54 153.00,674.88 L 153.00 670.00 L 172.50 670.00 L 192.00 670.00 L 192.00 676.13 C192.00,681.97 191.49,683.24 181.00,703.50 C174.95,715.19 170.00,725.26 170.00,725.87 C170.00,726.63 173.11,727.00 179.44,727.00 C188.07,727.00 189.02,727.19 190.44,729.22 C191.30,730.44 192.00,733.14 192.00,735.22 L 192.00 739.00 L 172.50 739.00 L 153.00 739.00 L 153.02 731.75 ZM 204.45 736.55 L 202.00 734.09 L 202.00 704.66 C202.00,677.18 202.13,675.06 203.91,672.86 C205.75,670.59 206.40,670.49 221.69,670.18 C236.65,669.89 237.72,669.99 240.28,672.01 L 243.00 674.15 L 243.00 704.57 C243.00,733.67 242.91,735.09 241.00,737.00 C239.17,738.83 237.67,739.00 222.95,739.00 C207.25,739.00 206.86,738.95 204.45,736.55 ZM 227.77 704.75 L 228.04 683.00 L 223.02 683.00 L 218.00 683.00 L 218.00 704.33 C218.00,716.07 218.32,725.99 218.71,726.38 C219.11,726.77 221.24,726.96 223.46,726.80 L 227.50 726.50 L 227.77 704.75 ZM 255.00 704.50 L 255.00 670.00 L 260.28 670.00 C269.00,670.00 269.48,670.58 277.11,690.50 L 280.94 700.50 L 280.97 688.33 C280.99,681.64 281.28,675.44 281.62,674.54 C282.55,672.12 287.38,670.00 291.95,670.00 L 296.00 670.00 L 296.00 704.62 L 296.00 739.24 L 289.85 738.80 C281.91,738.22 280.48,736.58 275.49,722.37 C273.40,716.39 271.30,711.07 270.84,710.55 C270.38,710.03 270.00,715.11 270.00,721.85 C270.00,733.51 269.88,734.21 267.55,736.55 C265.59,738.50 264.07,739.00 260.05,739.00 L 255.00 739.00 L 255.00 704.50 ZM 308.00 704.50 L 308.00 670.00 L 325.00 670.00 L 342.00 670.00 L 342.00 674.88 C342.00,681.29 340.54,682.38 331.10,683.00 L 323.50 683.50 L 323.20 690.25 L 322.91 697.00 L 330.59 697.00 L 338.26 697.00 L 337.72 701.08 C336.93,706.92 334.78,708.85 328.64,709.20 L 323.50 709.50 L 323.50 718.00 L 323.50 726.50 L 331.45 726.80 C335.83,726.96 339.99,727.58 340.70,728.17 C341.44,728.78 342.00,731.35 342.00,734.12 L 342.00 739.00 L 325.00 739.00 L 308.00 739.00 L 308.00 704.50 ZM 381.00 704.50 L 381.00 670.00 L 386.43 670.00 C391.10,670.00 392.14,670.37 393.93,672.63 C395.73,674.93 396.00,676.66 396.00,686.12 C396.00,696.70 396.06,696.98 398.38,697.56 C399.69,697.89 402.05,698.01 403.63,697.83 L 406.50 697.50 L 407.00 685.17 C407.58,670.92 408.13,670.00 416.19,670.00 L 421.00 670.00 L 421.00 704.50 L 421.00 739.00 L 416.19 739.00 C408.03,739.00 407.58,738.20 407.00,722.83 L 406.50 709.50 L 401.25 709.20 L 396.00 708.90 L 396.00 721.49 C396.00,733.54 395.89,734.20 393.55,736.55 C391.59,738.50 390.07,739.00 386.05,739.00 L 381.00 739.00 L 381.00 704.50 ZM 434.00 704.50 L 434.00 670.00 L 451.00 670.00 L 468.00 670.00 L 467.97 674.25 C467.92,681.02 466.20,682.42 457.21,683.00 L 449.50 683.50 L 449.20 690.25 L 448.91 697.00 L 455.95 697.00 L 463.00 697.00 L 463.00 700.78 C463.00,706.69 460.89,708.84 454.73,709.20 L 449.50 709.50 L 449.50 718.00 L 449.50 726.50 L 457.50 726.77 C466.85,727.08 469.00,728.64 469.00,735.11 L 469.00 739.00 L 451.50 739.00 L 434.00 739.00 L 434.00 704.50 ZM 475.02 737.75 C475.03,737.06 477.03,722.55 479.45,705.51 C484.78,668.05 483.74,670.00 498.37,670.00 C510.28,670.00 511.29,670.81 512.87,681.66 C515.24,697.89 518.94,725.75 519.60,732.25 L 520.28 739.00 L 516.20 739.00 C507.86,739.00 505.70,736.93 504.50,727.75 L 503.88 723.00 L 498.06 723.00 L 492.25 723.00 L 491.78 728.67 C491.14,736.33 488.22,739.00 480.44,739.00 C476.74,739.00 475.01,738.60 475.02,737.75 ZM 502.00 709.25 C502.00,705.00 498.60,684.00 497.91,684.00 C497.49,684.00 496.84,686.59 496.46,689.75 C496.09,692.91 495.24,698.77 494.57,702.77 C493.91,706.76 493.58,710.25 493.85,710.52 C494.12,710.78 496.06,711.00 498.17,711.00 C501.15,711.00 502.00,710.61 502.00,709.25 ZM 536.00 711.00 L 536.00 683.00 L 532.11 683.00 C526.63,683.00 524.10,680.57 523.77,675.00 L 523.50 670.50 L 543.25 670.23 L 563.00 669.96 L 563.00 674.91 C563.00,681.19 561.30,683.00 555.43,683.00 L 551.00 683.00 L 551.00 708.07 C551.00,723.06 550.59,733.89 549.99,735.02 C548.92,737.02 543.36,738.99 538.75,738.99 L 536.00 739.00 L 536.00 711.00 ZM 573.00 706.57 L 573.00 674.15 L 575.63 672.07 C577.48,670.62 579.73,670.00 583.13,670.00 L 588.00 670.00 L 588.00 702.05 L 588.00 734.09 L 585.55 736.55 C583.59,738.50 582.07,739.00 578.05,739.00 L 573.00 739.00 L 573.00 706.57 ZM 599.00 704.38 L 599.00 669.76 L 605.15 670.20 C612.78,670.76 613.54,671.60 618.80,685.28 C620.96,690.90 623.13,696.40 623.61,697.50 C624.21,698.85 624.58,695.91 624.75,688.50 C624.88,682.45 625.23,676.50 625.51,675.27 C626.19,672.36 630.86,670.00 635.96,670.00 L 640.03 670.00 L 639.76 704.25 L 639.50 738.50 L 634.23 738.80 C626.79,739.23 624.58,736.72 618.94,721.50 L 614.50 709.50 L 614.00 722.34 C613.53,734.33 613.34,735.31 611.14,737.09 C609.54,738.39 607.21,739.00 603.89,739.00 L 599.00 739.00 L 599.00 704.38 ZM 652.86 737.09 L 650.50 735.18 L 650.50 704.62 C650.50,676.65 650.65,673.92 652.28,672.29 C653.82,670.75 656.32,670.46 670.47,670.18 C690.94,669.79 690.42,669.47 691.46,683.32 C691.86,688.59 691.87,693.39 691.50,694.00 C690.63,695.41 682.33,694.30 679.25,692.37 C677.94,691.54 677.00,689.96 677.00,688.56 C677.00,683.84 676.08,683.00 670.87,683.00 L 665.96 683.00 L 666.23 704.75 L 666.50 726.50 L 671.11 726.80 L 675.71 727.10 L 676.30 721.37 C676.97,714.92 676.68,714.00 674.00,714.00 C671.43,714.00 669.00,710.25 669.00,706.28 L 669.00 703.00 L 680.48 703.00 L 691.95 703.00 L 691.56 718.59 C691.03,739.90 691.94,739.00 670.94,739.00 C656.95,739.00 654.96,738.79 652.86,737.09 ZM 399.00 517.36 C399.00,510.79 399.13,510.48 411.00,488.25 C417.60,475.90 423.00,465.61 423.00,465.39 C423.00,465.18 418.83,465.00 413.72,465.00 C402.03,465.00 400.33,464.02 399.85,457.01 L 399.50 452.00 L 420.25 452.00 L 441.00 452.00 L 441.00 457.51 C441.00,462.62 440.11,464.73 429.00,485.96 C422.40,498.57 417.00,509.37 417.00,509.95 C417.00,510.61 420.52,511.00 426.55,511.00 C435.35,511.00 436.28,511.19 438.55,513.45 C440.34,515.25 441.00,516.99 441.00,519.95 L 441.00 524.00 L 420.00 524.00 L 399.00 524.00 L 399.00 517.36 Z" fill="rgb(248,249,250)"/>
</g>
</svg>